<svg width="139" height="28" viewBox="0 0 139 28" fill="none" xmlns="http://www.w3.org/2000/svg">
<path d="M138.971 6.02944C138.971 5.47715 138.523 5.02944 137.971 5.02944L128.971 5.02944C128.418 5.02944 127.971 5.47715 127.971 6.02944C127.971 6.58172 128.418 7.02944 128.971 7.02944L136.971 7.02944L136.971 15.0294C136.971 15.5817 137.418 16.0294 137.971 16.0294C138.523 16.0294 138.971 15.5817 138.971 15.0294L138.971 6.02944ZM121.707 23.7071L138.678 6.73654L137.263 5.32233L120.293 22.2929L121.707 23.7071Z" fill="#096F7E"/>
<path d="M2.592 23V27.44H0.384V21.008H2.136C2.952 20.08 3.576 19.056 4.008 17.936C4.456 16.8 4.776 15.608 4.968 14.36C5.176 13.096 5.296 11.792 5.328 10.448C5.376 9.104 5.408 7.744 5.424 6.368H14.832V21.008H16.92V27.44H14.712V23H2.592ZM7.704 8.36C7.656 9.416 7.6 10.496 7.536 11.6C7.488 12.688 7.368 13.776 7.176 14.864C7 15.936 6.736 16.992 6.384 18.032C6.032 19.072 5.536 20.064 4.896 21.008H12.504V8.36H7.704ZM29.7518 10.52V23H27.5918V13.496C27.1118 14.104 26.5838 14.816 26.0078 15.632C25.4318 16.448 24.8558 17.296 24.2798 18.176C23.7038 19.04 23.1518 19.896 22.6238 20.744C22.0958 21.592 21.6398 22.344 21.2558 23H19.2638V10.52H21.4238V19.496C21.8398 18.808 22.3118 18.056 22.8398 17.24C23.3678 16.408 23.9118 15.592 24.4718 14.792C25.0478 13.976 25.6158 13.2 26.1758 12.464C26.7518 11.712 27.2878 11.064 27.7838 10.52H29.7518ZM43.6161 23H41.3841V12.392H35.8161V23H33.5841V10.52H43.6161V23ZM51.8031 12.392C51.8031 12.92 51.7871 13.488 51.7551 14.096C51.7391 14.688 51.6991 15.288 51.6351 15.896C51.5711 16.488 51.4831 17.08 51.3711 17.672C51.2591 18.248 51.1151 18.792 50.9391 19.304C50.7631 19.816 50.5391 20.296 50.2671 20.744C50.0111 21.192 49.6911 21.592 49.3071 21.944C48.9231 22.28 48.4751 22.568 47.9631 22.808C47.4511 23.032 46.8511 23.176 46.1631 23.24L45.8511 21.368C46.6351 21.208 47.2511 20.912 47.6991 20.48C48.1631 20.048 48.5311 19.52 48.8031 18.896C49.0431 18.352 49.2191 17.736 49.3311 17.048C49.4431 16.36 49.5231 15.648 49.5711 14.912C49.6191 14.16 49.6431 13.408 49.6431 12.656C49.6591 11.904 49.6671 11.192 49.6671 10.52H57.9711V23H55.7391V12.392H51.8031ZM72.8188 16.76C72.8188 17.752 72.6748 18.648 72.3868 19.448C72.0988 20.248 71.6908 20.936 71.1628 21.512C70.6508 22.088 70.0348 22.536 69.3148 22.856C68.5948 23.16 67.8108 23.312 66.9628 23.312C66.1148 23.312 65.3308 23.16 64.6108 22.856C63.8908 22.536 63.2668 22.088 62.7388 21.512C62.2268 20.936 61.8268 20.248 61.5388 19.448C61.2508 18.648 61.1068 17.752 61.1068 16.76C61.1068 15.784 61.2508 14.896 61.5388 14.096C61.8268 13.28 62.2268 12.584 62.7388 12.008C63.2668 11.432 63.8908 10.992 64.6108 10.688C65.3308 10.368 66.1148 10.208 66.9628 10.208C67.8108 10.208 68.5948 10.368 69.3148 10.688C70.0348 10.992 70.6508 11.432 71.1628 12.008C71.6908 12.584 72.0988 13.28 72.3868 14.096C72.6748 14.896 72.8188 15.784 72.8188 16.76ZM70.4908 16.76C70.4908 15.352 70.1708 14.24 69.5308 13.424C68.9068 12.592 68.0508 12.176 66.9628 12.176C65.8748 12.176 65.0108 12.592 64.3708 13.424C63.7468 14.24 63.4348 15.352 63.4348 16.76C63.4348 18.168 63.7468 19.288 64.3708 20.12C65.0108 20.936 65.8748 21.344 66.9628 21.344C68.0508 21.344 68.9068 20.936 69.5308 20.12C70.1708 19.288 70.4908 18.168 70.4908 16.76ZM78.3351 13.808C78.1751 15.392 78.0551 16.976 77.9751 18.56C77.8951 20.128 77.8311 21.608 77.7831 23H75.6471C75.6791 22.024 75.7271 21.008 75.7911 19.952C75.8551 18.88 75.9271 17.808 76.0071 16.736C76.0871 15.648 76.1751 14.584 76.2711 13.544C76.3671 12.488 76.4711 11.48 76.5831 10.52H78.6231C79.1351 11.352 79.7351 12.496 80.4231 13.952C81.1111 15.392 81.9031 17.056 82.7991 18.944C83.6951 17.056 84.4871 15.392 85.1751 13.952C85.8631 12.496 86.4631 11.352 86.9751 10.52H89.0391C89.1511 11.48 89.2551 12.488 89.3511 13.544C89.4471 14.584 89.5351 15.648 89.6151 16.736C89.6951 17.808 89.7671 18.88 89.8311 19.952C89.8951 21.008 89.9431 22.024 89.9751 23H87.7671C87.7191 21.608 87.6551 20.128 87.5751 18.56C87.4951 16.976 87.3751 15.392 87.2151 13.808C86.9591 14.304 86.6631 14.904 86.3271 15.608C85.9911 16.296 85.6551 17 85.3191 17.72C84.9991 18.44 84.6951 19.128 84.4071 19.784C84.1191 20.44 83.8951 20.96 83.7351 21.344H81.8631C81.6871 20.944 81.4471 20.416 81.1431 19.76C80.8551 19.104 80.5431 18.416 80.2071 17.696C79.8871 16.96 79.5591 16.248 79.2231 15.56C78.8871 14.856 78.5911 14.272 78.3351 13.808ZM98.0978 16.832C97.6658 16.832 97.2418 16.848 96.8258 16.88C96.4258 16.896 96.0658 16.944 95.7458 17.024V21.32C95.8418 21.336 95.9778 21.352 96.1538 21.368C96.3458 21.384 96.5458 21.4 96.7538 21.416C96.9778 21.416 97.2018 21.424 97.4258 21.44C97.6498 21.44 97.8498 21.44 98.0258 21.44C99.0018 21.44 99.7538 21.256 100.282 20.888C100.81 20.52 101.074 19.928 101.074 19.112C101.074 18.712 100.986 18.368 100.81 18.08C100.65 17.792 100.426 17.56 100.138 17.384C99.8658 17.192 99.5538 17.056 99.2018 16.976C98.8498 16.88 98.4818 16.832 98.0978 16.832ZM93.5138 10.52H95.7458V15.296C96.0178 15.232 96.4098 15.168 96.9218 15.104C97.4498 15.04 97.9538 15.008 98.4338 15.008C99.0898 15.008 99.7138 15.088 100.306 15.248C100.898 15.392 101.418 15.632 101.866 15.968C102.314 16.288 102.666 16.712 102.922 17.24C103.194 17.752 103.33 18.368 103.33 19.088C103.33 19.84 103.202 20.48 102.946 21.008C102.69 21.536 102.33 21.968 101.866 22.304C101.402 22.64 100.842 22.88 100.186 23.024C99.5298 23.184 98.8098 23.264 98.0258 23.264C97.2738 23.264 96.5138 23.216 95.7458 23.12C94.9778 23.04 94.2338 22.912 93.5138 22.736V10.52ZM107.866 23H105.634V10.52H107.866V23Z" fill="black"/>
<path d="M0 26.888H109.786V28.784H0V26.888Z" fill="black"/>
</svg>
